
<svg width="305" height="92" viewBox="0 0 305 92" fill="none" xmlns="http://www.w3.org/2000/svg">
<path d="M74 0H40C34.4772 0 30 4.47715 30 10V26C30 31.5228 34.4772 36 40 36H74C79.5228 36 84 31.5228 84 26V10C84 4.47715 79.5228 0 74 0Z" fill="#A9F0B8"/>
<path d="M69 38H33C26.9249 38 22 42.9249 22 49V67C22 73.0751 26.9249 78 33 78H69C75.0751 78 80 73.0751 80 67V49C80 42.9249 75.0751 38 69 38Z" fill="#27C05A"/>
<path d="M61 16H13C5.8203 16 0 21.8203 0 29V55C0 62.1797 5.8203 68 13 68H61C68.1797 68 74 62.1797 74 55V29C74 21.8203 68.1797 16 61 16Z" fill="#388DA4"/>
<path d="M52 68C52 68 57.593 75.2574 56 76.5C54.407 77.7426 42 68 42 68H52Z" fill="#388DA4"/>
<path d="M63.6002 78C63.6002 78 70.6475 88.1154 68.6403 89.8474C66.633 91.5793 51 78 51 78H63.6002Z" fill="#158F3E"/>
<path d="M18 47C20.7614 47 23 44.7614 23 42C23 39.2386 20.7614 37 18 37C15.2386 37 13 39.2386 13 42C13 44.7614 15.2386 47 18 47Z" fill="white"/>
<path d="M37 47C39.7614 47 42 44.7614 42 42C42 39.2386 39.7614 37 37 37C34.2386 37 32 39.2386 32 42C32 44.7614 34.2386 47 37 47Z" fill="white"/>
<path d="M56 47C58.7614 47 61 44.7614 61 42C61 39.2386 58.7614 37 56 37C53.2386 37 51 39.2386 51 42C51 44.7614 53.2386 47 56 47Z" fill="#DF4144"/>
<path d="M111.659 49.4048C109.536 49.4048 107.71 48.955 106.18 48.0554C104.66 47.1468 103.491 45.8873 102.672 44.277C101.862 42.6667 101.457 40.8134 101.457 38.7173C101.457 36.5942 101.867 34.732 102.685 33.1307C103.513 31.5204 104.687 30.2654 106.207 29.3658C107.728 28.4571 109.536 28.0028 111.632 28.0028C113.44 28.0028 115.024 28.3312 116.382 28.9879C117.741 29.6446 118.816 30.5668 119.607 31.7543C120.399 32.9418 120.835 34.3362 120.916 35.9375H115.491C115.339 34.9029 114.934 34.0708 114.277 33.4411C113.629 32.8023 112.779 32.483 111.727 32.483C110.836 32.483 110.058 32.7259 109.392 33.2116C108.735 33.6884 108.223 34.3857 107.854 35.3033C107.485 36.2209 107.3 37.3319 107.3 38.6364C107.3 39.9588 107.48 41.0833 107.84 42.0099C108.209 42.9366 108.726 43.6428 109.392 44.1286C110.058 44.6143 110.836 44.8572 111.727 44.8572C112.383 44.8572 112.973 44.7223 113.494 44.4524C114.025 44.1825 114.461 43.7912 114.803 43.2784C115.154 42.7566 115.384 42.1314 115.491 41.4027H120.916C120.826 42.986 120.394 44.3804 119.621 45.5859C118.856 46.7824 117.799 47.718 116.45 48.3928C115.1 49.0675 113.503 49.4048 111.659 49.4048ZM130.345 37.017V49H124.597V21.3636H130.183V31.9297H130.426C130.894 30.7062 131.65 29.7481 132.693 29.0554C133.737 28.3537 135.046 28.0028 136.62 28.0028C138.06 28.0028 139.315 28.3177 140.385 28.9474C141.465 29.5682 142.301 30.4633 142.895 31.6328C143.498 32.7933 143.795 34.1832 143.786 35.8026V49H138.037V36.8281C138.046 35.5507 137.722 34.5566 137.066 33.8459C136.418 33.1352 135.509 32.7798 134.34 32.7798C133.557 32.7798 132.864 32.9463 132.262 33.2791C131.668 33.612 131.2 34.0978 130.858 34.7365C130.525 35.3662 130.354 36.1264 130.345 37.017ZM154.22 49.3913C152.898 49.3913 151.719 49.1619 150.685 48.7031C149.65 48.2353 148.831 47.5471 148.229 46.6385C147.635 45.7209 147.338 44.5784 147.338 43.2109C147.338 42.0594 147.549 41.0923 147.972 40.3097C148.395 39.527 148.971 38.8973 149.7 38.4205C150.428 37.9437 151.256 37.5838 152.183 37.3409C153.118 37.098 154.099 36.9271 155.124 36.8281C156.33 36.7022 157.301 36.5852 158.039 36.4773C158.777 36.3603 159.312 36.1894 159.645 35.9645C159.978 35.7396 160.144 35.4067 160.144 34.9659V34.8849C160.144 34.0303 159.874 33.3691 159.335 32.9013C158.804 32.4335 158.048 32.1996 157.067 32.1996C156.033 32.1996 155.21 32.429 154.598 32.8878C153.986 33.3376 153.581 33.9044 153.384 34.5881L148.067 34.1562C148.337 32.8968 148.867 31.8082 149.659 30.8906C150.451 29.964 151.472 29.2533 152.722 28.7585C153.982 28.2547 155.439 28.0028 157.094 28.0028C158.246 28.0028 159.348 28.1378 160.401 28.4077C161.462 28.6776 162.402 29.0959 163.221 29.6626C164.049 30.2294 164.701 30.9581 165.178 31.8487C165.654 32.7303 165.893 33.7874 165.893 35.0199V49H160.441V46.1257H160.279C159.946 46.7734 159.501 47.3447 158.943 47.8395C158.385 48.3253 157.715 48.7076 156.933 48.9865C156.15 49.2564 155.246 49.3913 154.22 49.3913ZM155.866 45.424C156.712 45.424 157.459 45.2576 158.107 44.9247C158.754 44.5829 159.263 44.1241 159.631 43.5483C160 42.9725 160.185 42.3203 160.185 41.5916V39.392C160.005 39.509 159.757 39.617 159.442 39.7159C159.137 39.8059 158.79 39.8913 158.403 39.9723C158.017 40.0443 157.63 40.1117 157.243 40.1747C156.856 40.2287 156.505 40.2782 156.19 40.3232C155.516 40.4221 154.926 40.5795 154.423 40.7955C153.919 41.0114 153.527 41.3037 153.249 41.6726C152.97 42.0324 152.83 42.4822 152.83 43.022C152.83 43.8047 153.114 44.4029 153.68 44.8168C154.256 45.2216 154.985 45.424 155.866 45.424ZM181.377 28.2727V32.5909H168.895V28.2727H181.377ZM171.729 23.3068H177.478V42.6307C177.478 43.1615 177.559 43.5753 177.721 43.8722C177.882 44.16 178.107 44.3625 178.395 44.4794C178.692 44.5964 179.034 44.6548 179.421 44.6548C179.691 44.6548 179.961 44.6323 180.23 44.5874C180.5 44.5334 180.707 44.4929 180.851 44.4659L181.755 48.7436C181.467 48.8336 181.063 48.937 180.541 49.054C180.019 49.1799 179.385 49.2564 178.638 49.2834C177.253 49.3374 176.038 49.1529 174.995 48.7301C173.96 48.3073 173.155 47.6506 172.579 46.7599C172.003 45.8693 171.72 44.7448 171.729 43.3864V23.3068ZM196.147 28.2727V32.5909H183.665V28.2727H196.147ZM186.499 23.3068H192.247V42.6307C192.247 43.1615 192.328 43.5753 192.49 43.8722C192.652 44.16 192.877 44.3625 193.165 44.4794C193.462 44.5964 193.804 44.6548 194.19 44.6548C194.46 44.6548 194.73 44.6323 195 44.5874C195.27 44.5334 195.477 44.4929 195.621 44.4659L196.525 48.7436C196.237 48.8336 195.832 48.937 195.31 49.054C194.789 49.1799 194.154 49.2564 193.408 49.2834C192.022 49.3374 190.808 49.1529 189.764 48.7301C188.73 48.3073 187.924 47.6506 187.349 46.7599C186.773 45.8693 186.49 44.7448 186.499 43.3864V23.3068ZM209.115 49.4048C206.983 49.4048 205.148 48.973 203.609 48.1094C202.08 47.2367 200.902 46.0043 200.074 44.4119C199.246 42.8106 198.832 40.9169 198.832 38.7308C198.832 36.5987 199.246 34.7275 200.074 33.1172C200.902 31.5069 202.067 30.2519 203.569 29.3523C205.08 28.4527 206.853 28.0028 208.886 28.0028C210.253 28.0028 211.526 28.2232 212.705 28.6641C213.892 29.0959 214.927 29.7481 215.808 30.6207C216.699 31.4934 217.392 32.5909 217.886 33.9134C218.381 35.2268 218.629 36.7652 218.629 38.5284V40.1072H201.126V36.5447H213.217C213.217 35.7171 213.037 34.9839 212.678 34.3452C212.318 33.7064 211.818 33.2071 211.18 32.8473C210.55 32.4785 209.817 32.294 208.98 32.294C208.107 32.294 207.334 32.4964 206.659 32.9013C205.993 33.2971 205.472 33.8324 205.094 34.5071C204.716 35.1728 204.522 35.915 204.513 36.7337V40.1207C204.513 41.1463 204.702 42.0324 205.08 42.7791C205.467 43.5258 206.011 44.1016 206.713 44.5064C207.415 44.9112 208.247 45.1136 209.21 45.1136C209.848 45.1136 210.433 45.0237 210.964 44.8438C211.495 44.6638 211.949 44.3939 212.327 44.0341C212.705 43.6742 212.992 43.2334 213.19 42.7116L218.507 43.0625C218.237 44.34 217.684 45.4555 216.847 46.4091C216.02 47.3537 214.949 48.0914 213.636 48.6222C212.331 49.1439 210.824 49.4048 209.115 49.4048ZM222.38 49V28.2727H227.953V31.8892H228.169C228.547 30.6027 229.181 29.6312 230.072 28.9744C230.962 28.3087 231.988 27.9759 233.148 27.9759C233.436 27.9759 233.747 27.9938 234.08 28.0298C234.412 28.0658 234.705 28.1153 234.957 28.1783V33.2791C234.687 33.1982 234.313 33.1262 233.837 33.0632C233.36 33.0002 232.924 32.9688 232.528 32.9688C231.682 32.9688 230.926 33.1532 230.261 33.522C229.604 33.8819 229.082 34.3857 228.695 35.0334C228.317 35.6811 228.129 36.4278 228.129 37.2734V49H222.38Z" fill="#86969A"/>
<path d="M238.037 49V21.3636H243.785V31.7543H243.961C244.213 31.1965 244.577 30.6297 245.054 30.054C245.54 29.4692 246.169 28.9834 246.943 28.5966C247.726 28.2008 248.697 28.0028 249.858 28.0028C251.369 28.0028 252.764 28.3987 254.041 29.1903C255.318 29.973 256.34 31.156 257.104 32.7393C257.869 34.3137 258.251 36.2884 258.251 38.6634C258.251 40.9754 257.878 42.9276 257.131 44.5199C256.394 46.1032 255.386 47.3042 254.108 48.1229C252.84 48.9325 251.419 49.3374 249.844 49.3374C248.729 49.3374 247.78 49.1529 246.997 48.7841C246.223 48.4152 245.589 47.9519 245.094 47.3942C244.599 46.8274 244.222 46.2562 243.961 45.6804H243.704V49H238.037ZM243.664 38.6364C243.664 39.8688 243.835 40.9439 244.177 41.8615C244.519 42.7791 245.013 43.4943 245.661 44.0071C246.309 44.5109 247.096 44.7628 248.023 44.7628C248.958 44.7628 249.75 44.5064 250.398 43.9936C251.045 43.4718 251.536 42.7521 251.868 41.8345C252.21 40.9079 252.381 39.8419 252.381 38.6364C252.381 37.4399 252.215 36.3873 251.882 35.4787C251.549 34.5701 251.059 33.8594 250.411 33.3466C249.763 32.8338 248.967 32.5774 248.023 32.5774C247.087 32.5774 246.295 32.8248 245.648 33.3196C245.009 33.8144 244.519 34.5161 244.177 35.4247C243.835 36.3333 243.664 37.4039 243.664 38.6364ZM271.452 49.4048C269.356 49.4048 267.543 48.9595 266.014 48.0689C264.493 47.1693 263.319 45.9188 262.492 44.3175C261.664 42.7071 261.25 40.8404 261.25 38.7173C261.25 36.5762 261.664 34.705 262.492 33.1037C263.319 31.4934 264.493 30.2429 266.014 29.3523C267.543 28.4527 269.356 28.0028 271.452 28.0028C273.548 28.0028 275.356 28.4527 276.877 29.3523C278.406 30.2429 279.585 31.4934 280.412 33.1037C281.24 34.705 281.654 36.5762 281.654 38.7173C281.654 40.8404 281.24 42.7071 280.412 44.3175C279.585 45.9188 278.406 47.1693 276.877 48.0689C275.356 48.9595 273.548 49.4048 271.452 49.4048ZM271.479 44.9517C272.433 44.9517 273.229 44.6818 273.868 44.142C274.506 43.5933 274.988 42.8466 275.311 41.902C275.644 40.9574 275.811 39.8823 275.811 38.6768C275.811 37.4714 275.644 36.3963 275.311 35.4517C274.988 34.5071 274.506 33.7604 273.868 33.2116C273.229 32.6629 272.433 32.3885 271.479 32.3885C270.516 32.3885 269.707 32.6629 269.05 33.2116C268.402 33.7604 267.912 34.5071 267.579 35.4517C267.255 36.3963 267.093 37.4714 267.093 38.6768C267.093 39.8823 267.255 40.9574 267.579 41.902C267.912 42.8466 268.402 43.5933 269.05 44.142C269.707 44.6818 270.516 44.9517 271.479 44.9517ZM289.453 28.2727L293.259 35.5192L297.159 28.2727H303.056L297.051 38.6364L303.218 49H297.348L293.259 41.8345L289.238 49H283.3L289.453 38.6364L283.516 28.2727H289.453Z" fill="#4B8D98"/>
<path d="M107.101 63.7727C107.056 63.3949 106.875 63.1016 106.556 62.8928C106.238 62.6839 105.848 62.5795 105.386 62.5795C105.048 62.5795 104.752 62.6342 104.498 62.7436C104.247 62.853 104.051 63.0034 103.909 63.1948C103.77 63.3862 103.7 63.6037 103.7 63.8473C103.7 64.0511 103.749 64.2264 103.846 64.373C103.945 64.5172 104.072 64.6378 104.226 64.7347C104.38 64.8292 104.542 64.9075 104.711 64.9696C104.88 65.0293 105.035 65.0778 105.177 65.1151L105.952 65.3239C106.151 65.3761 106.373 65.4482 106.616 65.5401C106.862 65.6321 107.097 65.7576 107.321 65.9167C107.547 66.0733 107.733 66.2747 107.88 66.5208C108.027 66.7669 108.1 67.0689 108.1 67.4268C108.1 67.8395 107.992 68.2124 107.776 68.5455C107.562 68.8786 107.249 69.1433 106.836 69.3397C106.426 69.536 105.928 69.6342 105.341 69.6342C104.794 69.6342 104.32 69.546 103.92 69.3695C103.523 69.193 103.209 68.9469 102.981 68.6312C102.754 68.3155 102.626 67.9489 102.597 67.5312H103.551C103.576 67.8196 103.673 68.0582 103.842 68.2472C104.013 68.4336 104.23 68.5728 104.491 68.6648C104.754 68.7543 105.038 68.799 105.341 68.799C105.694 68.799 106.011 68.7418 106.292 68.6275C106.573 68.5107 106.795 68.3491 106.959 68.1428C107.123 67.9339 107.205 67.6903 107.205 67.4119C107.205 67.1584 107.134 66.9521 106.993 66.793C106.851 66.6339 106.665 66.5046 106.433 66.4052C106.202 66.3058 105.952 66.2187 105.684 66.1442L104.744 65.8757C104.148 65.7042 103.675 65.4593 103.327 65.1412C102.979 64.823 102.805 64.4066 102.805 63.892C102.805 63.4645 102.921 63.0916 103.152 62.7734C103.386 62.4528 103.699 62.2042 104.092 62.0277C104.487 61.8487 104.928 61.7592 105.415 61.7592C105.908 61.7592 106.345 61.8475 106.728 62.024C107.111 62.198 107.414 62.4366 107.638 62.7399C107.864 63.0431 107.983 63.3874 107.996 63.7727H107.101ZM109.621 69.5V61.8636H114.229V62.6839H110.545V65.2642H113.991V66.0845H110.545V68.6797H114.289V69.5H109.621ZM115.896 69.5V61.8636H116.821V68.6797H120.37V69.5H115.896ZM121.802 69.5V61.8636H126.381V62.6839H122.727V65.2642H126.038V66.0845H122.727V69.5H121.802ZM131.127 65.2717V66.092H127.786V65.2717H131.127ZM132.794 69.5V61.8636H133.719V65.2642H137.791V61.8636H138.716V69.5H137.791V66.0845H133.719V69.5H132.794ZM147.01 65.6818C147.01 66.4872 146.865 67.1832 146.574 67.7699C146.283 68.3565 145.884 68.8089 145.377 69.1271C144.87 69.4453 144.291 69.6044 143.639 69.6044C142.988 69.6044 142.409 69.4453 141.902 69.1271C141.395 68.8089 140.996 68.3565 140.705 67.7699C140.414 67.1832 140.269 66.4872 140.269 65.6818C140.269 64.8764 140.414 64.1804 140.705 63.5938C140.996 63.0071 141.395 62.5547 141.902 62.2365C142.409 61.9183 142.988 61.7592 143.639 61.7592C144.291 61.7592 144.87 61.9183 145.377 62.2365C145.884 62.5547 146.283 63.0071 146.574 63.5938C146.865 64.1804 147.01 64.8764 147.01 65.6818ZM146.115 65.6818C146.115 65.0206 146.004 64.4625 145.783 64.0076C145.564 63.5527 145.267 63.2085 144.892 62.9748C144.519 62.7411 144.102 62.6243 143.639 62.6243C143.177 62.6243 142.758 62.7411 142.383 62.9748C142.01 63.2085 141.713 63.5527 141.492 64.0076C141.273 64.4625 141.163 65.0206 141.163 65.6818C141.163 66.343 141.273 66.9011 141.492 67.356C141.713 67.8109 142.01 68.1552 142.383 68.3888C142.758 68.6225 143.177 68.7393 143.639 68.7393C144.102 68.7393 144.519 68.6225 144.892 68.3888C145.267 68.1552 145.564 67.8109 145.783 67.356C146.004 66.9011 146.115 66.343 146.115 65.6818ZM152.741 63.7727C152.696 63.3949 152.515 63.1016 152.197 62.8928C151.878 62.6839 151.488 62.5795 151.026 62.5795C150.688 62.5795 150.392 62.6342 150.138 62.7436C149.887 62.853 149.691 63.0034 149.549 63.1948C149.41 63.3862 149.34 63.6037 149.34 63.8473C149.34 64.0511 149.389 64.2264 149.486 64.373C149.585 64.5172 149.712 64.6378 149.866 64.7347C150.02 64.8292 150.182 64.9075 150.351 64.9696C150.52 65.0293 150.675 65.0778 150.817 65.1151L151.593 65.3239C151.791 65.3761 152.013 65.4482 152.256 65.5401C152.502 65.6321 152.737 65.7576 152.961 65.9167C153.187 66.0733 153.374 66.2747 153.52 66.5208C153.667 66.7669 153.74 67.0689 153.74 67.4268C153.74 67.8395 153.632 68.2124 153.416 68.5455C153.202 68.8786 152.889 69.1433 152.476 69.3397C152.066 69.536 151.568 69.6342 150.981 69.6342C150.434 69.6342 149.961 69.546 149.56 69.3695C149.163 69.193 148.849 68.9469 148.621 68.6312C148.395 68.3155 148.267 67.9489 148.237 67.5312H149.191C149.216 67.8196 149.313 68.0582 149.482 68.2472C149.654 68.4336 149.87 68.5728 150.131 68.6648C150.394 68.7543 150.678 68.799 150.981 68.799C151.334 68.799 151.651 68.7418 151.932 68.6275C152.213 68.5107 152.435 68.3491 152.599 68.1428C152.763 67.9339 152.845 67.6903 152.845 67.4119C152.845 67.1584 152.775 66.9521 152.633 66.793C152.491 66.6339 152.305 66.5046 152.074 66.4052C151.842 66.3058 151.593 66.2187 151.324 66.1442L150.384 65.8757C149.788 65.7042 149.316 65.4593 148.968 65.1412C148.62 64.823 148.446 64.4066 148.446 63.892C148.446 63.4645 148.561 63.0916 148.792 62.7734C149.026 62.4528 149.339 62.2042 149.732 62.0277C150.127 61.8487 150.568 61.7592 151.056 61.7592C151.548 61.7592 151.985 61.8475 152.368 62.024C152.751 62.198 153.054 62.4366 153.278 62.7399C153.504 63.0431 153.623 63.3874 153.636 63.7727H152.741ZM154.843 62.6839V61.8636H160.57V62.6839H158.169V69.5H157.244V62.6839H154.843ZM161.997 69.5V61.8636H166.606V62.6839H162.922V65.2642H166.367V66.0845H162.922V68.6797H166.666V69.5H161.997ZM170.629 69.5H168.273V61.8636H170.734C171.475 61.8636 172.108 62.0165 172.635 62.3223C173.162 62.6255 173.566 63.0618 173.847 63.631C174.128 64.1978 174.269 64.8764 174.269 65.6669C174.269 66.4624 174.127 67.1472 173.844 67.7214C173.56 68.2931 173.148 68.7331 172.606 69.0414C172.064 69.3471 171.405 69.5 170.629 69.5ZM169.198 68.6797H170.57C171.201 68.6797 171.724 68.5579 172.14 68.3143C172.555 68.0707 172.864 67.7239 173.068 67.274C173.272 66.824 173.374 66.2884 173.374 65.6669C173.374 65.0504 173.273 64.5197 173.072 64.0748C172.87 63.6273 172.57 63.2843 172.169 63.0456C171.769 62.8045 171.271 62.6839 170.674 62.6839H169.198V68.6797ZM179.295 66.8303C179.111 66.8303 178.953 66.7644 178.821 66.6326C178.69 66.5009 178.624 66.343 178.624 66.1591C178.624 65.9751 178.69 65.8173 178.821 65.6855C178.953 65.5538 179.111 65.4879 179.295 65.4879C179.479 65.4879 179.637 65.5538 179.768 65.6855C179.9 65.8173 179.966 65.9751 179.966 66.1591C179.966 66.2809 179.935 66.3928 179.873 66.4947C179.813 66.5966 179.732 66.6786 179.63 66.7408C179.531 66.8004 179.419 66.8303 179.295 66.8303ZM191.061 65.6818C191.061 66.4872 190.915 67.1832 190.625 67.7699C190.334 68.3565 189.935 68.8089 189.428 69.1271C188.92 69.4453 188.341 69.6044 187.69 69.6044C187.039 69.6044 186.46 69.4453 185.952 69.1271C185.445 68.8089 185.046 68.3565 184.756 67.7699C184.465 67.1832 184.319 66.4872 184.319 65.6818C184.319 64.8764 184.465 64.1804 184.756 63.5938C185.046 63.0071 185.445 62.5547 185.952 62.2365C186.46 61.9183 187.039 61.7592 187.69 61.7592C188.341 61.7592 188.92 61.9183 189.428 62.2365C189.935 62.5547 190.334 63.0071 190.625 63.5938C190.915 64.1804 191.061 64.8764 191.061 65.6818ZM190.166 65.6818C190.166 65.0206 190.055 64.4625 189.834 64.0076C189.615 63.5527 189.318 63.2085 188.943 62.9748C188.57 62.7411 188.152 62.6243 187.69 62.6243C187.228 62.6243 186.809 62.7411 186.433 62.9748C186.061 63.2085 185.764 63.5527 185.542 64.0076C185.324 64.4625 185.214 65.0206 185.214 65.6818C185.214 66.343 185.324 66.9011 185.542 67.356C185.764 67.8109 186.061 68.1552 186.433 68.3888C186.809 68.6225 187.228 68.7393 187.69 68.7393C188.152 68.7393 188.57 68.6225 188.943 68.3888C189.318 68.1552 189.615 67.8109 189.834 67.356C190.055 66.9011 190.166 66.343 190.166 65.6818ZM192.616 69.5V61.8636H195.196C195.795 61.8636 196.285 61.9718 196.665 62.188C197.048 62.4018 197.331 62.6914 197.515 63.0568C197.699 63.4222 197.791 63.8299 197.791 64.2798C197.791 64.7298 197.699 65.1387 197.515 65.5066C197.334 65.8745 197.053 66.1678 196.672 66.3865C196.292 66.6028 195.805 66.7109 195.211 66.7109H193.361V65.8906H195.181C195.591 65.8906 195.92 65.8198 196.169 65.6781C196.418 65.5364 196.598 65.345 196.71 65.1039C196.824 64.8603 196.881 64.5856 196.881 64.2798C196.881 63.9741 196.824 63.7006 196.71 63.4595C196.598 63.2184 196.416 63.0295 196.165 62.8928C195.914 62.7536 195.581 62.6839 195.166 62.6839H193.54V69.5H192.616ZM199.281 69.5V61.8636H203.889V62.6839H200.205V65.2642H203.651V66.0845H200.205V68.6797H203.949V69.5H199.281ZM211.611 61.8636V69.5H210.717L206.555 63.5043H206.481V69.5H205.556V61.8636H206.451L210.627 67.8743H210.702V61.8636H211.611ZM220.591 63.7727C220.546 63.3949 220.365 63.1016 220.047 62.8928C219.729 62.6839 219.338 62.5795 218.876 62.5795C218.538 62.5795 218.242 62.6342 217.988 62.7436C217.737 62.853 217.541 63.0034 217.399 63.1948C217.26 63.3862 217.191 63.6037 217.191 63.8473C217.191 64.0511 217.239 64.2264 217.336 64.373C217.435 64.5172 217.562 64.6378 217.716 64.7347C217.87 64.8292 218.032 64.9075 218.201 64.9696C218.37 65.0293 218.525 65.0778 218.667 65.1151L219.443 65.3239C219.642 65.3761 219.863 65.4482 220.106 65.5401C220.352 65.6321 220.587 65.7576 220.811 65.9167C221.037 66.0733 221.224 66.2747 221.37 66.5208C221.517 66.7669 221.59 67.0689 221.59 67.4268C221.59 67.8395 221.482 68.2124 221.266 68.5455C221.052 68.8786 220.739 69.1433 220.326 69.3397C219.916 69.536 219.418 69.6342 218.831 69.6342C218.284 69.6342 217.811 69.546 217.411 69.3695C217.013 69.193 216.7 68.9469 216.471 68.6312C216.245 68.3155 216.117 67.9489 216.087 67.5312H217.041C217.066 67.8196 217.163 68.0582 217.332 68.2472C217.504 68.4336 217.72 68.5728 217.981 68.6648C218.244 68.7543 218.528 68.799 218.831 68.799C219.184 68.799 219.501 68.7418 219.782 68.6275C220.063 68.5107 220.285 68.3491 220.449 68.1428C220.613 67.9339 220.695 67.6903 220.695 67.4119C220.695 67.1584 220.625 66.9521 220.483 66.793C220.341 66.6339 220.155 66.5046 219.924 66.4052C219.692 66.3058 219.443 66.2187 219.174 66.1442L218.235 65.8757C217.638 65.7042 217.166 65.4593 216.818 65.1412C216.47 64.823 216.296 64.4066 216.296 63.892C216.296 63.4645 216.411 63.0916 216.642 62.7734C216.876 62.4528 217.189 62.2042 217.582 62.0277C217.977 61.8487 218.419 61.7592 218.906 61.7592C219.398 61.7592 219.835 61.8475 220.218 62.024C220.601 62.198 220.904 62.4366 221.128 62.7399C221.354 63.0431 221.474 63.3874 221.486 63.7727H220.591ZM229.554 65.6818C229.554 66.4872 229.409 67.1832 229.118 67.7699C228.827 68.3565 228.428 68.8089 227.921 69.1271C227.414 69.4453 226.834 69.6044 226.183 69.6044C225.532 69.6044 224.953 69.4453 224.446 69.1271C223.939 68.8089 223.54 68.3565 223.249 67.7699C222.958 67.1832 222.812 66.4872 222.812 65.6818C222.812 64.8764 222.958 64.1804 223.249 63.5938C223.54 63.0071 223.939 62.5547 224.446 62.2365C224.953 61.9183 225.532 61.7592 226.183 61.7592C226.834 61.7592 227.414 61.9183 227.921 62.2365C228.428 62.5547 228.827 63.0071 229.118 63.5938C229.409 64.1804 229.554 64.8764 229.554 65.6818ZM228.659 65.6818C228.659 65.0206 228.548 64.4625 228.327 64.0076C228.108 63.5527 227.811 63.2085 227.436 62.9748C227.063 62.7411 226.646 62.6243 226.183 62.6243C225.721 62.6243 225.302 62.7411 224.927 62.9748C224.554 63.2085 224.257 63.5527 224.035 64.0076C223.817 64.4625 223.707 65.0206 223.707 65.6818C223.707 66.343 223.817 66.9011 224.035 67.356C224.257 67.8109 224.554 68.1552 224.927 68.3888C225.302 68.6225 225.721 68.7393 226.183 68.7393C226.646 68.7393 227.063 68.6225 227.436 68.3888C227.811 68.1552 228.108 67.8109 228.327 67.356C228.548 66.9011 228.659 66.343 228.659 65.6818ZM236.12 61.8636H237.045V66.9197C237.045 67.4418 236.922 67.9078 236.676 68.318C236.432 68.7257 236.088 69.0476 235.643 69.2837C235.198 69.5174 234.676 69.6342 234.077 69.6342C233.478 69.6342 232.956 69.5174 232.511 69.2837C232.066 69.0476 231.72 68.7257 231.474 68.318C231.231 67.9078 231.109 67.4418 231.109 66.9197V61.8636H232.034V66.8452C232.034 67.218 232.116 67.5499 232.28 67.8407C232.444 68.1291 232.677 68.3565 232.981 68.5231C233.286 68.6871 233.652 68.7692 234.077 68.7692C234.502 68.7692 234.867 68.6871 235.173 68.5231C235.479 68.3565 235.712 68.1291 235.874 67.8407C236.038 67.5499 236.12 67.218 236.12 66.8452V61.8636ZM238.892 69.5V61.8636H241.472C242.068 61.8636 242.558 61.9656 242.941 62.1694C243.324 62.3707 243.607 62.6479 243.791 63.0009C243.975 63.3539 244.067 63.7553 244.067 64.2053C244.067 64.6552 243.975 65.0542 243.791 65.4022C243.607 65.7502 243.325 66.0236 242.945 66.2225C242.564 66.4189 242.078 66.517 241.487 66.517H239.399V65.6818H241.457C241.865 65.6818 242.193 65.6222 242.441 65.5028C242.692 65.3835 242.874 65.2145 242.986 64.9957C243.1 64.7745 243.157 64.511 243.157 64.2053C243.157 63.8995 243.1 63.6323 242.986 63.4036C242.871 63.1749 242.689 62.9984 242.438 62.8741C242.186 62.7473 241.855 62.6839 241.442 62.6839H239.816V69.5H238.892ZM242.486 66.0696L244.365 69.5H243.291L241.442 66.0696H242.486ZM251.753 64.25H250.828C250.773 63.984 250.678 63.7504 250.541 63.549C250.407 63.3477 250.243 63.1786 250.049 63.0419C249.857 62.9027 249.645 62.7983 249.411 62.7287C249.177 62.6591 248.934 62.6243 248.68 62.6243C248.218 62.6243 247.799 62.7411 247.424 62.9748C247.051 63.2085 246.754 63.5527 246.533 64.0076C246.314 64.4625 246.204 65.0206 246.204 65.6818C246.204 66.343 246.314 66.9011 246.533 67.356C246.754 67.8109 247.051 68.1552 247.424 68.3888C247.799 68.6225 248.218 68.7393 248.68 68.7393C248.934 68.7393 249.177 68.7045 249.411 68.6349C249.645 68.5653 249.857 68.4622 250.049 68.3255C250.243 68.1863 250.407 68.016 250.541 67.8146C250.678 67.6108 250.773 67.3771 250.828 67.1136H251.753C251.683 67.5039 251.556 67.8532 251.372 68.1614C251.188 68.4696 250.96 68.7319 250.686 68.9482C250.413 69.1619 250.106 69.3248 249.765 69.4366C249.427 69.5485 249.066 69.6044 248.68 69.6044C248.029 69.6044 247.45 69.4453 246.943 69.1271C246.436 68.8089 246.037 68.3565 245.746 67.7699C245.455 67.1832 245.31 66.4872 245.31 65.6818C245.31 64.8764 245.455 64.1804 245.746 63.5938C246.037 63.0071 246.436 62.5547 246.943 62.2365C247.45 61.9183 248.029 61.7592 248.68 61.7592C249.066 61.7592 249.427 61.8152 249.765 61.927C250.106 62.0389 250.413 62.2029 250.686 62.4192C250.96 62.633 251.188 62.894 251.372 63.2022C251.556 63.508 251.683 63.8572 251.753 64.25ZM253.247 69.5V61.8636H257.856V62.6839H254.172V65.2642H257.617V66.0845H254.172V68.6797H257.915V69.5H253.247Z" fill="#3D7B6C"/>
</svg>
